# xmcd
# 
# Track frame offsets:
#     187
#     16230
#     40667
# 
# Disc length: 751
# 
# Revision: 1
# Processed by: cddbd v1.5.2PL0 Copyright (c) Steve Scherf et al.
# Submitted via: fre:ac v1.0.17
# 
DISCID=1602ed03
DTITLE=al.ni.co - TOY＄！
DYEAR=1998
DGENRE=Grunge
TTITLE0=TOY＄！
TTITLE1=無意味な黄色 ～Meaningless Yellow
TTITLE2=雨音 "EXPANDED DEMO TRACK"
EXTD=
EXTT0=
EXTT1=
EXTT2=
PLAYORDER=
